# xmcd CD database file
#
# Track frame offsets:
#	150
#	29605
#	50769
#	73839
#	92667
#	115414
#	136840
#	149608
#	170092
#	190907
#	208558
#	232892
#	248876
#	272216
#	294410
#	319776
#
# Disc length: 4720 seconds
#
# Revision: 1
# Processed by: cddbd v1.5.2PL0 Copyright (c) Steve Scherf et al.
# Submitted via: CDex 1.70beta2
#
DISCID=fc126e10
DTITLE=Jorma Kaukonen - Live at Toad's place - New Haven-CT - 29-11-84 - cd2
DYEAR=1984
DGENRE=Blues
TTITLE0=Winin' boy blues
TTITLE1=Death don't have no mercy
TTITLE2=Roads and roads &
TTITLE3=Uncle Sam blues
TTITLE4=Radical sleep
TTITLE5=Third week in the Chelsea
TTITLE6=I am the light of this world
TTITLE7=Trial by fire
TTITLE8=Rock me baby
TTITLE9=True religion
TTITLE10=Sea child
TTITLE11=Keep on truckin'
TTITLE12=Junkies on angel dust
TTITLE13=Come back baby
TTITLE14=Mann's fate
TTITLE15=Too hot to handle - Water song
EXTD=YEAR: 1984
EXTT0=
EXTT1=
EXTT2=
EXTT3=
EXTT4=
EXTT5=
EXTT6=
EXTT7=
EXTT8=
EXTT9=
EXTT10=
EXTT11=
EXTT12=
EXTT13=
EXTT14=
EXTT15=
PLAYORDER=
